<?xml version="1.0" encoding="UTF-8"?>
<svg width="22px" height="24px" viewBox="0 0 22 24" version="1.1" xmlns="http://www.w3.org/2000/svg" xmlns:xlink="http://www.w3.org/1999/xlink">
    <!-- Generator: Sketch 52.3 (67297) - http://www.bohemiancoding.com/sketch -->
    <title>yogurt</title>
    <desc>Created with Sketch.</desc>
    <g id="Page-1" stroke="none" stroke-width="1" fill="none" fill-rule="evenodd" stroke-linecap="round" stroke-linejoin="round">
        <g id="Home-Page" transform="translate(-39.000000, -958.000000)" stroke="#4857FF" stroke-width="2">
            <g id="yogurt" transform="translate(40.000000, 959.000000)">
                <path d="M11.714,8 L14.451,1.157 C14.6429362,0.680070326 15.0257473,0.305257531 15.5066228,0.123433009 C15.9874983,-0.0583915137 16.5225292,-0.0306252554 16.982,0.2 C17.4415614,0.430139657 17.7839197,0.842002807 17.9261954,1.33588389 C18.0684712,1.82976498 17.9976947,2.36064272 17.731,2.8 L14.565,8" id="Path"></path>
                <polyline id="Path" points="2 12 10 12 10 18 2 18"></polyline>
                <path d="M2,8 L2,20 C2,21.1045695 2.8954305,22 4,22 L16,22 C17.1045695,22 18,21.1045695 18,20 L18,8" id="Path"></path>
                <path d="M0,8 L20,8" id="Path"></path>
            </g>
        </g>
    </g>
</svg>