<?xml version="1.0" encoding="UTF-8"?>
<svg width="166px" height="36px" viewBox="0 0 166 36" version="1.1" xmlns="http://www.w3.org/2000/svg" xmlns:xlink="http://www.w3.org/1999/xlink">
    <!-- Generator: Sketch 52.3 (67297) - http://www.bohemiancoding.com/sketch -->
    <title>Group</title>
    <desc>Created with Sketch.</desc>
    <g id="Page-1" stroke="none" stroke-width="1" fill="none" fill-rule="evenodd">
        <g id="Gallery" transform="translate(-40.000000, -20.000000)">
            <g id="Group" transform="translate(40.000000, 20.000000)">
                <path d="M62.1638591,27 C57.1898928,27 53,22.8734177 53,17.9873418 C53,13.1012658 57.1898928,9 62.1638591,9 C64.8591118,9 67.3093415,10.1898734 69,12.0632911 L65.4961715,15.2278481 C64.712098,14.164557 63.4869832,13.4556962 62.1638591,13.4556962 C59.8606432,13.4556962 57.9004594,15.5316456 57.9004594,17.9873418 C57.9004594,20.4683544 59.8606432,22.5443038 62.1638591,22.5443038 C63.5114855,22.5443038 64.712098,21.835443 65.5206738,20.7721519 L69,23.9113924 C67.3093415,25.8101266 64.8591118,27 62.1638591,27 Z M81.14241,10 L86,10 L86,27 L81.14241,27 L81.14241,20.4672489 L74.85759,20.4672489 L74.85759,27 L70,27 L70,10 L74.85759,10 L74.85759,16.1863173 L81.14241,16.1863173 L81.14241,10 Z M100.722892,27 L99.8795181,24.7234352 L94.1204819,24.7234352 L93.2771084,27 L88,27 L94.3614458,10 L99.6385542,10 L106,27 L100.722892,27 Z M95,21 L98,21 L96.5116279,17 L95,21 Z M108,27 L108,10 L112.731707,10 L119.268293,19.1062591 L119.268293,10 L124,10 L124,27 L119.268293,27 L112.731707,17.8937409 L112.731707,27 L108,27 Z M134.229261,20.1392405 L134.229261,16.5189873 L142,16.5189873 L142,23.9113924 C140.286576,25.8607595 137.75264,27 135.146305,27 C130.174962,27 126,22.8734177 126,17.9873418 C126,13.1012658 130.174962,9 135.146305,9 C137.75264,9 140.286576,10.1392405 142,12.0632911 L138.54902,15.2278481 C137.728507,14.1139241 136.473605,13.4556962 135.146305,13.4556962 C132.80543,13.4556962 130.826546,15.5316456 130.826546,17.9873418 C130.826546,20.4683544 132.80543,22.5443038 135.146305,22.5443038 C135.966817,22.5443038 136.763198,22.2911392 137.463047,21.835443 L137.463047,20.1392405 L134.229261,20.1392405 Z M146.614583,17 C145.807292,14.9701493 145,12.7731343 145,11.3641791 C145,10.0746269 146.145833,9 147.5,9 C148.854167,9 150,10.0746269 150,11.3641791 C150,12.7731343 149.192708,14.9701493 148.385417,17 L146.614583,17 Z M159.052373,27 C156.008183,27 153.135843,26.0126582 151,24.0632911 L153.651391,20.7974684 C155.369885,22.1898734 157.235679,22.9240506 159.224223,22.9240506 C160.525368,22.9240506 161.212766,22.4683544 161.212766,21.7088608 C161.212766,20.8734177 160.623568,20.7468354 158.291326,20.1898734 C154.633388,19.3291139 151.810147,18.3417722 151.810147,14.721519 C151.810147,11.2531646 154.461538,9 158.463175,9 C161.384615,9 163.667758,9.81012658 165.533552,11.3544304 L163.152209,14.8227848 C161.581015,13.6582278 159.86252,13.0759494 158.340426,13.0759494 C157.186579,13.0759494 156.621931,13.556962 156.621931,14.2151899 C156.621931,15.1012658 157.211129,15.3797468 159.617021,15.9113924 C163.545008,16.7721519 166,17.8607595 166,21.1772152 C166,24.8481013 163.274959,27 159.052373,27 Z" id="Chang's" fill="#FB1616"></path>
                <g id="soup">
                    <path d="M37.173913,18 L0.826086957,18 C0.369851728,18 0,18.3663125 0,18.8181818 C0.0177047678,26.1807662 4.35856247,32.8603953 11.1174783,35.9255455 C11.2253032,35.9745125 11.3425111,35.9999064 11.4611304,36 L26.5388696,36 C26.6574889,35.9999064 26.7746968,35.9745125 26.8825217,35.9255455 C33.6414375,32.8603953 37.9822952,26.1807662 38,18.8181818 C38,18.3663125 37.6301483,18 37.173913,18 Z" id="Path" fill="#FFD000"></path>
                    <path d="M19,10 C18.4477153,10 18,9.62690396 18,9.16666667 L18,0.833333333 C18,0.373096042 18.4477153,0 19,0 C19.5522847,-9.25185854e-17 20,0.373096042 20,0.833333333 L20,9.16666667 C20,9.62690396 19.5522847,10 19,10 Z" id="Path" fill="#FB1616"></path>
                    <path d="M9,13 C8.44771525,13 8,12.626904 8,12.1666667 L8,3.83333333 C8,3.37309604 8.44771525,3 9,3 C9.55228475,3 10,3.37309604 10,3.83333333 L10,12.1666667 C10,12.626904 9.55228475,13 9,13 Z" id="Path" fill="#FB1616"></path>
                    <path d="M29,13 C28.4477153,13 28,12.626904 28,12.1666667 L28,3.83333333 C28,3.37309604 28.4477153,3 29,3 C29.5522847,3 30,3.37309604 30,3.83333333 L30,12.1666667 C30,12.626904 29.5522847,13 29,13 Z" id="Path" fill="#FB1616"></path>
                </g>
            </g>
        </g>
    </g>
</svg>